<svg width="193" height="46" viewBox="0 0 193 46" fill="none" xmlns="http://www.w3.org/2000/svg">
<path d="M65.344 34.224C63.872 34.224 62.5707 33.968 61.44 33.456C60.3307 32.944 59.456 32.2293 58.816 31.312C58.176 30.3947 57.8347 29.3707 57.792 28.24H60.16C60.2667 29.328 60.7467 30.288 61.6 31.12C62.4533 31.9307 63.7013 32.336 65.344 32.336C66.8587 32.336 68.0533 31.952 68.928 31.184C69.824 30.3947 70.272 29.4027 70.272 28.208C70.272 27.248 70.0267 26.48 69.536 25.904C69.0453 25.3067 68.4373 24.8693 67.712 24.592C66.9867 24.2933 65.984 23.9733 64.704 23.632C63.2107 23.2267 62.0267 22.832 61.152 22.448C60.2773 22.064 59.5307 21.4667 58.912 20.656C58.2933 19.8453 57.984 18.7467 57.984 17.36C57.984 16.208 58.2827 15.184 58.88 14.288C59.4773 13.3707 60.32 12.656 61.408 12.144C62.496 11.632 63.744 11.376 65.152 11.376C67.2213 11.376 68.8853 11.888 70.144 12.912C71.424 13.9147 72.16 15.216 72.352 16.816H69.92C69.7707 15.8987 69.2693 15.088 68.416 14.384C67.5627 13.6587 66.4107 13.296 64.96 13.296C63.616 13.296 62.496 13.6587 61.6 14.384C60.704 15.088 60.256 16.0587 60.256 17.296C60.256 18.2347 60.5013 18.992 60.992 19.568C61.4827 20.144 62.0907 20.5813 62.816 20.88C63.5627 21.1787 64.5653 21.4987 65.824 21.84C67.2747 22.2453 68.448 22.6507 69.344 23.056C70.24 23.44 70.9973 24.0373 71.616 24.848C72.2347 25.6587 72.544 26.7467 72.544 28.112C72.544 29.1573 72.2667 30.1493 71.712 31.088C71.1573 32.0267 70.336 32.784 69.248 33.36C68.16 33.936 66.8587 34.224 65.344 34.224ZM79.1125 10.32V34H76.8725V10.32H79.1125ZM85.305 13.232C84.857 13.232 84.473 13.072 84.153 12.752C83.833 12.432 83.673 12.0373 83.673 11.568C83.673 11.0987 83.833 10.7147 84.153 10.416C84.473 10.096 84.857 9.936 85.305 9.936C85.753 9.936 86.137 10.096 86.457 10.416C86.777 10.7147 86.937 11.0987 86.937 11.568C86.937 12.0373 86.777 12.432 86.457 12.752C86.137 13.072 85.753 13.232 85.305 13.232ZM86.425 16.528V34H84.185V16.528H86.425ZM112.298 16.208C114.346 16.208 116.01 16.8587 117.29 18.16C118.591 19.44 119.242 21.3067 119.242 23.76V34H117.034V24.016C117.034 22.1173 116.575 20.6667 115.658 19.664C114.74 18.6613 113.492 18.16 111.914 18.16C110.271 18.16 108.959 18.704 107.978 19.792C106.996 20.88 106.506 22.4587 106.506 24.528V34H104.298V24.016C104.298 22.1173 103.839 20.6667 102.922 19.664C102.004 18.6613 100.746 18.16 99.1455 18.16C97.5028 18.16 96.1908 18.704 95.2095 19.792C94.2282 20.88 93.7375 22.4587 93.7375 24.528V34H91.4975V16.528H93.7375V19.536C94.2922 18.448 95.0815 17.6267 96.1055 17.072C97.1295 16.496 98.2708 16.208 99.5295 16.208C101.044 16.208 102.367 16.5707 103.498 17.296C104.65 18.0213 105.482 19.088 105.994 20.496C106.463 19.1093 107.263 18.0533 108.394 17.328C109.546 16.5813 110.847 16.208 112.298 16.208ZM140.55 34.224C138.907 34.224 137.435 33.9573 136.134 33.424C134.832 32.8907 133.787 32.1013 132.998 31.056C132.23 30.0107 131.824 28.752 131.782 27.28H137.606C137.691 28.112 137.979 28.752 138.47 29.2C138.96 29.6267 139.6 29.84 140.39 29.84C141.2 29.84 141.84 29.6587 142.31 29.296C142.779 28.912 143.014 28.3893 143.014 27.728C143.014 27.1733 142.822 26.7147 142.438 26.352C142.075 25.9893 141.616 25.6907 141.062 25.456C140.528 25.2213 139.76 24.9547 138.758 24.656C137.307 24.208 136.123 23.76 135.206 23.312C134.288 22.864 133.499 22.2027 132.838 21.328C132.176 20.4533 131.846 19.312 131.846 17.904C131.846 15.8133 132.603 14.1813 134.118 13.008C135.632 11.8133 137.606 11.216 140.038 11.216C142.512 11.216 144.507 11.8133 146.022 13.008C147.536 14.1813 148.347 15.824 148.454 17.936H142.534C142.491 17.2107 142.224 16.6453 141.734 16.24C141.243 15.8133 140.614 15.6 139.845 15.6C139.184 15.6 138.651 15.7813 138.246 16.144C137.84 16.4853 137.638 16.9867 137.638 17.648C137.638 18.3733 137.979 18.9387 138.661 19.344C139.344 19.7493 140.411 20.1867 141.862 20.656C143.312 21.1467 144.486 21.616 145.382 22.064C146.299 22.512 147.088 23.1627 147.75 24.016C148.411 24.8693 148.742 25.968 148.742 27.312C148.742 28.592 148.411 29.7547 147.75 30.8C147.11 31.8453 146.171 32.6773 144.934 33.296C143.696 33.9147 142.235 34.224 140.55 34.224ZM157.581 15.92V20.464H164.909V24.688H157.581V29.616H165.869V34H152.109V11.536H165.869V15.92H157.581ZM180.046 34.224C177.934 34.224 175.992 33.7333 174.222 32.752C172.472 31.7707 171.075 30.4053 170.03 28.656C169.005 26.8853 168.493 24.9013 168.493 22.704C168.493 20.5067 169.005 18.5333 170.03 16.784C171.075 15.0347 172.472 13.6693 174.222 12.688C175.992 11.7067 177.934 11.216 180.046 11.216C182.158 11.216 184.088 11.7067 185.838 12.688C187.608 13.6693 188.995 15.0347 189.998 16.784C191.022 18.5333 191.534 20.5067 191.534 22.704C191.534 24.9013 191.022 26.8853 189.998 28.656C188.974 30.4053 187.587 31.7707 185.838 32.752C184.088 33.7333 182.158 34.224 180.046 34.224ZM180.046 29.232C181.838 29.232 183.267 28.6347 184.333 27.44C185.422 26.2453 185.966 24.6667 185.966 22.704C185.966 20.72 185.422 19.1413 184.333 17.968C183.267 16.7733 181.838 16.176 180.046 16.176C178.232 16.176 176.782 16.7627 175.694 17.936C174.627 19.1093 174.094 20.6987 174.094 22.704C174.094 24.688 174.627 26.2773 175.694 27.472C176.782 28.6453 178.232 29.232 180.046 29.232Z" fill="white"/>
<path d="M42.4062 0H3.59375C1.60898 0 0 1.60898 0 3.59375V42.4062C0 44.391 1.60898 46 3.59375 46H42.4062C44.391 46 46 44.391 46 42.4062V3.59375C46 1.60898 44.391 0 42.4062 0Z" fill="url(#paint0_linear_1139_14)"/>
<path d="M23.2683 34.224C21.6256 34.224 20.1536 33.9573 18.8523 33.424C17.5509 32.8907 16.5056 32.1013 15.7163 31.056C14.9483 30.0107 14.5429 28.752 14.5003 27.28H20.3243C20.4096 28.112 20.6976 28.752 21.1883 29.2C21.6789 29.6267 22.3189 29.84 23.1083 29.84C23.9189 29.84 24.5589 29.6587 25.0283 29.296C25.4976 28.912 25.7323 28.3893 25.7323 27.728C25.7323 27.1733 25.5403 26.7147 25.1563 26.352C24.7936 25.9893 24.3349 25.6907 23.7803 25.456C23.2469 25.2213 22.4789 24.9547 21.4763 24.656C20.0256 24.208 18.8416 23.76 17.9243 23.312C17.0069 22.864 16.2176 22.2027 15.5563 21.328C14.8949 20.4533 14.5643 19.312 14.5643 17.904C14.5643 15.8133 15.3216 14.1813 16.8363 13.008C18.3509 11.8133 20.3243 11.216 22.7563 11.216C25.2309 11.216 27.2256 11.8133 28.7403 13.008C30.2549 14.1813 31.0656 15.824 31.1723 17.936H25.2523C25.2096 17.2107 24.9429 16.6453 24.4523 16.24C23.9616 15.8133 23.3323 15.6 22.5642 15.6C21.9029 15.6 21.3696 15.7813 20.9643 16.144C20.5589 16.4853 20.3563 16.9867 20.3563 17.648C20.3563 18.3733 20.6976 18.9387 21.3802 19.344C22.0629 19.7493 23.1296 20.1867 24.5803 20.656C26.0309 21.1467 27.2043 21.616 28.1003 22.064C29.0176 22.512 29.8069 23.1627 30.4683 24.016C31.1296 24.8693 31.4603 25.968 31.4603 27.312C31.4603 28.592 31.1296 29.7547 30.4683 30.8C29.8283 31.8453 28.8896 32.6773 27.6523 33.296C26.4149 33.9147 24.9536 34.224 23.2683 34.224Z" fill="white"/>
<defs>
<linearGradient id="paint0_linear_1139_14" x1="0" y1="0" x2="46" y2="46" gradientUnits="userSpaceOnUse">
<stop stop-color="#C21500"/>
<stop offset="1" stop-color="#FFC500"/>
</linearGradient>
</defs>
</svg>
