<svg width="48" height="48" viewBox="0 0 48 48" fill="none" xmlns="http://www.w3.org/2000/svg">
<path d="M44.25 0H3.75C1.67893 0 0 1.67893 0 3.75V44.25C0 46.3211 1.67893 48 3.75 48H44.25C46.3211 48 48 46.3211 48 44.25V3.75C48 1.67893 46.3211 0 44.25 0Z" fill="url(#paint0_linear_439_2)"/>
<path d="M24.2683 35.224C22.6256 35.224 21.1536 34.9573 19.8523 34.424C18.5509 33.8907 17.5056 33.1013 16.7163 32.056C15.9483 31.0107 15.5429 29.752 15.5003 28.28H21.3243C21.4096 29.112 21.6976 29.752 22.1883 30.2C22.6789 30.6267 23.3189 30.84 24.1083 30.84C24.9189 30.84 25.5589 30.6587 26.0283 30.296C26.4976 29.912 26.7323 29.3893 26.7323 28.728C26.7323 28.1733 26.5403 27.7147 26.1563 27.352C25.7936 26.9893 25.3349 26.6907 24.7803 26.456C24.2469 26.2213 23.4789 25.9547 22.4763 25.656C21.0256 25.208 19.8416 24.76 18.9243 24.312C18.0069 23.864 17.2176 23.2027 16.5563 22.328C15.8949 21.4533 15.5643 20.312 15.5643 18.904C15.5643 16.8133 16.3216 15.1813 17.8363 14.008C19.3509 12.8133 21.3243 12.216 23.7563 12.216C26.2309 12.216 28.2256 12.8133 29.7403 14.008C31.2549 15.1813 32.0656 16.824 32.1723 18.936H26.2523C26.2096 18.2107 25.9429 17.6453 25.4523 17.24C24.9616 16.8133 24.3323 16.6 23.5642 16.6C22.9029 16.6 22.3696 16.7813 21.9643 17.144C21.5589 17.4853 21.3563 17.9867 21.3563 18.648C21.3563 19.3733 21.6976 19.9387 22.3802 20.344C23.0629 20.7493 24.1296 21.1867 25.5803 21.656C27.0309 22.1467 28.2043 22.616 29.1003 23.064C30.0176 23.512 30.8069 24.1627 31.4683 25.016C32.1296 25.8693 32.4603 26.968 32.4603 28.312C32.4603 29.592 32.1296 30.7547 31.4683 31.8C30.8283 32.8453 29.8896 33.6773 28.6523 34.296C27.4149 34.9147 25.9536 35.224 24.2683 35.224Z" fill="white"/>
<defs>
<linearGradient id="paint0_linear_439_2" x1="0" y1="0" x2="48" y2="48" gradientUnits="userSpaceOnUse">
<stop stop-color="#C21500"/>
<stop offset="1" stop-color="#FFC500"/>
</linearGradient>
</defs>
</svg>
