<svg width="386" height="92" viewBox="0 0 386 92" fill="none" xmlns="http://www.w3.org/2000/svg">
<path d="M130.688 68.448C127.744 68.448 125.141 67.936 122.88 66.912C120.661 65.888 118.912 64.4587 117.632 62.624C116.352 60.7893 115.669 58.7413 115.584 56.48H120.32C120.533 58.656 121.493 60.576 123.2 62.24C124.907 63.8613 127.403 64.672 130.688 64.672C133.717 64.672 136.107 63.904 137.856 62.368C139.648 60.7893 140.544 58.8053 140.544 56.416C140.544 54.496 140.053 52.96 139.072 51.808C138.091 50.6133 136.875 49.7387 135.424 49.184C133.973 48.5867 131.968 47.9467 129.408 47.264C126.421 46.4533 124.053 45.664 122.304 44.896C120.555 44.128 119.061 42.9333 117.824 41.312C116.587 39.6907 115.968 37.4933 115.968 34.72C115.968 32.416 116.565 30.368 117.76 28.576C118.955 26.7413 120.64 25.312 122.816 24.288C124.992 23.264 127.488 22.752 130.304 22.752C134.443 22.752 137.771 23.776 140.288 25.824C142.848 27.8293 144.32 30.432 144.704 33.632H139.84C139.541 31.7973 138.539 30.176 136.832 28.768C135.125 27.3173 132.821 26.592 129.92 26.592C127.232 26.592 124.992 27.3173 123.2 28.768C121.408 30.176 120.512 32.1173 120.512 34.592C120.512 36.4693 121.003 37.984 121.984 39.136C122.965 40.288 124.181 41.1627 125.632 41.76C127.125 42.3573 129.131 42.9973 131.648 43.68C134.549 44.4907 136.896 45.3013 138.688 46.112C140.48 46.88 141.995 48.0747 143.232 49.696C144.469 51.3173 145.088 53.4933 145.088 56.224C145.088 58.3147 144.533 60.2987 143.424 62.176C142.315 64.0533 140.672 65.568 138.496 66.72C136.32 67.872 133.717 68.448 130.688 68.448ZM158.225 20.64V68H153.745V20.64H158.225ZM170.61 26.464C169.714 26.464 168.946 26.144 168.306 25.504C167.666 24.864 167.346 24.0747 167.346 23.136C167.346 22.1973 167.666 21.4293 168.306 20.832C168.946 20.192 169.714 19.872 170.61 19.872C171.506 19.872 172.274 20.192 172.914 20.832C173.554 21.4293 173.874 22.1973 173.874 23.136C173.874 24.0747 173.554 24.864 172.914 25.504C172.274 26.144 171.506 26.464 170.61 26.464ZM172.85 33.056V68H168.37V33.056H172.85ZM224.595 32.416C228.691 32.416 232.019 33.7173 234.579 36.32C237.182 38.88 238.483 42.6133 238.483 47.52V68H234.067V48.032C234.067 44.2347 233.15 41.3333 231.315 39.328C229.48 37.3227 226.984 36.32 223.827 36.32C220.542 36.32 217.918 37.408 215.955 39.584C213.992 41.76 213.011 44.9173 213.011 49.056V68H208.595V48.032C208.595 44.2347 207.678 41.3333 205.843 39.328C204.008 37.3227 201.491 36.32 198.291 36.32C195.006 36.32 192.382 37.408 190.419 39.584C188.456 41.76 187.475 44.9173 187.475 49.056V68H182.995V33.056H187.475V39.072C188.584 36.896 190.163 35.2533 192.211 34.144C194.259 32.992 196.542 32.416 199.059 32.416C202.088 32.416 204.734 33.1413 206.995 34.592C209.299 36.0427 210.963 38.176 211.987 40.992C212.926 38.2187 214.526 36.1067 216.787 34.656C219.091 33.1627 221.694 32.416 224.595 32.416ZM281.099 68.448C277.814 68.448 274.87 67.9147 272.267 66.848C269.664 65.7813 267.574 64.2027 265.995 62.112C264.459 60.0213 263.648 57.504 263.563 54.56H275.211C275.382 56.224 275.958 57.504 276.939 58.4C277.92 59.2533 279.2 59.68 280.779 59.68C282.4 59.68 283.68 59.3173 284.619 58.592C285.558 57.824 286.027 56.7787 286.027 55.456C286.027 54.3467 285.643 53.4293 284.875 52.704C284.15 51.9787 283.232 51.3813 282.123 50.912C281.056 50.4427 279.52 49.9093 277.515 49.312C274.614 48.416 272.246 47.52 270.411 46.624C268.576 45.728 266.998 44.4053 265.675 42.656C264.352 40.9067 263.691 38.624 263.691 35.808C263.691 31.6267 265.206 28.3627 268.235 26.016C271.264 23.6267 275.211 22.432 280.075 22.432C285.024 22.432 289.014 23.6267 292.043 26.016C295.072 28.3627 296.694 31.648 296.907 35.872H285.067C284.982 34.4213 284.448 33.2907 283.467 32.48C282.486 31.6267 281.227 31.2 279.691 31.2C278.368 31.2 277.302 31.5627 276.491 32.288C275.68 32.9707 275.275 33.9733 275.275 35.296C275.275 36.7467 275.958 37.8773 277.323 38.688C278.688 39.4987 280.822 40.3733 283.723 41.312C286.624 42.2933 288.971 43.232 290.763 44.128C292.598 45.024 294.176 46.3253 295.499 48.032C296.822 49.7387 297.483 51.936 297.483 54.624C297.483 57.184 296.822 59.5093 295.499 61.6C294.219 63.6907 292.342 65.3547 289.867 66.592C287.392 67.8293 284.47 68.448 281.099 68.448ZM315.162 31.84V40.928H329.818V49.376H315.162V59.232H331.738V68H304.218V23.072H331.738V31.84H315.162ZM360.091 68.448C355.867 68.448 351.984 67.4667 348.443 65.504C344.944 63.5413 342.15 60.8107 340.059 57.312C338.011 53.7707 336.987 49.8027 336.987 45.408C336.987 41.0133 338.011 37.0667 340.059 33.568C342.15 30.0693 344.944 27.3387 348.443 25.376C351.984 23.4133 355.867 22.432 360.091 22.432C364.315 22.432 368.176 23.4133 371.675 25.376C375.216 27.3387 377.99 30.0693 379.995 33.568C382.043 37.0667 383.067 41.0133 383.067 45.408C383.067 49.8027 382.043 53.7707 379.995 57.312C377.947 60.8107 375.174 63.5413 371.675 65.504C368.176 67.4667 364.315 68.448 360.091 68.448ZM360.091 58.464C363.675 58.464 366.534 57.2693 368.667 54.88C370.843 52.4907 371.931 49.3333 371.931 45.408C371.931 41.44 370.843 38.2827 368.667 35.936C366.534 33.5467 363.675 32.352 360.091 32.352C356.464 32.352 353.563 33.5253 351.387 35.872C349.254 38.2187 348.187 41.3973 348.187 45.408C348.187 49.376 349.254 52.5547 351.387 54.944C353.563 57.2907 356.464 58.464 360.091 58.464Z" fill="#2D3748"/>
<path d="M84.8125 0H7.1875C3.21795 0 0 3.21795 0 7.1875V84.8125C0 88.782 3.21795 92 7.1875 92H84.8125C88.782 92 92 88.782 92 84.8125V7.1875C92 3.21795 88.782 0 84.8125 0Z" fill="url(#paint0_linear_1140_21)"/>
<path d="M46.5365 68.448C43.2512 68.448 40.3072 67.9147 37.7045 66.848C35.1018 65.7813 33.0112 64.2027 31.4325 62.112C29.8965 60.0213 29.0858 57.504 29.0005 54.56H40.6485C40.8192 56.224 41.3952 57.504 42.3765 58.4C43.3578 59.2533 44.6378 59.68 46.2165 59.68C47.8378 59.68 49.1178 59.3173 50.0565 58.592C50.9952 57.824 51.4645 56.7787 51.4645 55.456C51.4645 54.3467 51.0805 53.4293 50.3125 52.704C49.5872 51.9787 48.6698 51.3813 47.5605 50.912C46.4938 50.4427 44.9578 49.9093 42.9525 49.312C40.0512 48.416 37.6832 47.52 35.8485 46.624C34.0138 45.728 32.4352 44.4053 31.1125 42.656C29.7898 40.9067 29.1285 38.624 29.1285 35.808C29.1285 31.6267 30.6432 28.3627 33.6725 26.016C36.7018 23.6267 40.6485 22.432 45.5125 22.432C50.4618 22.432 54.4512 23.6267 57.4805 26.016C60.5098 28.3627 62.1312 31.648 62.3445 35.872H50.5045C50.4192 34.4213 49.8858 33.2907 48.9045 32.48C47.9232 31.6267 46.6645 31.2 45.1285 31.2C43.8058 31.2 42.7392 31.5627 41.9285 32.288C41.1178 32.9707 40.7125 33.9733 40.7125 35.296C40.7125 36.7467 41.3952 37.8773 42.7605 38.688C44.1258 39.4987 46.2592 40.3733 49.1605 41.312C52.0618 42.2933 54.4085 43.232 56.2005 44.128C58.0352 45.024 59.6138 46.3253 60.9365 48.032C62.2592 49.7387 62.9205 51.936 62.9205 54.624C62.9205 57.184 62.2592 59.5093 60.9365 61.6C59.6565 63.6907 57.7792 65.3547 55.3045 66.592C52.8298 67.8293 49.9072 68.448 46.5365 68.448Z" fill="white"/>
<defs>
<linearGradient id="paint0_linear_1140_21" x1="0" y1="0" x2="92" y2="92" gradientUnits="userSpaceOnUse">
<stop stop-color="#C21500"/>
<stop offset="1" stop-color="#FFC500"/>
</linearGradient>
</defs>
</svg>
